<svg width="100" height="98" viewBox="0 0 100 98" fill="none" xmlns="http://www.w3.org/2000/svg">
<rect x="3.5" y="3.5" width="92.2537" height="91" fill="#442F17" stroke="black" stroke-width="7"/>
<path d="M60.43 70.103L47.9267 51.9367L46.1461 49.3507L31.6375 28.2709H37.8784L49.6118 45.3187L51.3922 47.9046L66.671 70.103H60.43ZM69.251 68.3285L53.503 45.4496L51.7226 42.8621L40.4574 26.496L39.5237 25.1398H25.6812L29.0571 30.0454L44.0354 51.8085L45.8159 54.3933L57.8508 71.8794L58.7845 73.2341H72.6271L69.251 68.3285Z" fill="white"/>
<path d="M46.146 49.3507L47.9266 51.9367L45.8158 54.3933L29.6206 73.2341H25.627L44.0353 51.8085L46.146 49.3507Z" fill="white"/>
<path d="M70.9607 25.1397L53.503 45.4495L51.3922 47.9045L49.6118 45.3186L51.7226 42.862L63.5482 29.0977L66.967 25.1397H70.9607Z" fill="white"/>
</svg>
