<svg width="100" height="98" viewBox="0 0 100 98" fill="none" xmlns="http://www.w3.org/2000/svg">
<rect x="3.5" y="3.5" width="92.2537" height="91" fill="#442F17" stroke="black" stroke-width="7"/>
<path d="M23.5171 48.8442L31.8246 45.2096V35.8636L41.1706 41.0558L49.4782 37.4213L31.8246 27.0369L23.5171 31.1906V48.8442Z" fill="white"/>
<path d="M76.9981 31.1912L69.729 27.5566L60.383 32.7489L66.6136 35.8642L22.999 56.1138V66.4983L29.7489 69.6136L39.6141 65.4598L33.3835 61.8253L76.9981 42.0948V31.1912Z" fill="white"/>
<path d="M76.9996 65.4603V48.8452L69.2113 51.9605V61.3065L59.3461 56.6335L51.0386 61.3065L69.2113 70.1333L76.9996 65.4603Z" fill="white"/>
<path d="M50.5164 70.6521L45.8434 68.5752L37.0166 72.729L50.5164 79.9981L64.0161 72.729L56.2278 68.5752L50.5164 70.6521Z" fill="white"/>
<path d="M50.5164 17.6914L37.0166 24.4413L45.3241 29.6335L50.5164 27.0374L54.6701 29.6335L64.0161 25.4797L50.5164 17.6914Z" fill="white"/>
</svg>
