<svg width="100" height="98" viewBox="0 0 100 98" fill="none" xmlns="http://www.w3.org/2000/svg">
<rect x="3.5" y="3.5" width="92.2537" height="91" fill="#442F17" stroke="black" stroke-width="7"/>
<path d="M76.8918 25.9939C76.6947 25.4053 76.4595 25.2504 76.092 25.1032C75.2884 24.8012 73.9272 25.2581 73.9272 25.2581C73.9272 25.2581 25.7372 42.8229 22.9841 44.7668C22.3913 45.185 22.1927 45.4328 22.0942 45.7193C21.6183 47.0979 23.101 47.7097 23.101 47.7097L35.5218 51.8143C35.5218 51.8143 35.9847 51.884 36.1497 51.7756C38.9754 49.9634 64.5787 33.5758 66.0553 33.0259C66.2883 32.9562 66.4609 33.0337 66.4151 33.1963C65.8238 35.3029 43.5862 55.3381 43.5862 55.3381C43.5862 55.3381 43.5014 55.4465 43.448 55.5705L43.4189 55.555L42.2601 68.047C42.2601 68.047 41.7743 71.8728 45.5487 68.047C48.2116 65.3441 50.7882 63.0827 52.0776 61.9907C56.3485 64.9801 60.9448 68.2871 62.9287 70.0141C63.9248 70.8815 64.7582 71.0209 65.4442 70.9977C67.3272 70.928 67.8527 68.8292 67.8527 68.8292C67.8527 68.8292 76.6344 32.995 76.9277 28.1933C76.9567 27.7209 76.9965 27.4266 76.9995 27.1013C77.0049 26.6521 76.9636 26.203 76.8918 25.9939Z" fill="white"/>
</svg>
